<?xml version="1.0" encoding="UTF-8" standalone="no"?><svg xmlns="http://www.w3.org/2000/svg" xmlns:xlink="http://www.w3.org/1999/xlink" fill="#ffffff" height="487.8" preserveAspectRatio="xMidYMid meet" version="1" viewBox="-0.0 -0.0 487.8 487.8" width="487.8" zoomAndPan="magnify"><g><g id="change1_1"><path d="M278.6,215.5L405.2,79.9l-31.6-1L264.2,196.2L175.9,78L62.6,76L201.8,263L69.3,405l31.3,1.3l115.6-123.9l92.2,124 l116.7,5.3L278.6,215.5z M101.4,95.9l64.8,1.1l219.2,293.7l-67-3.1L101.4,95.9z"/></g><path d="M426.4,483.1h-365 c-31.3,0-56.7-25.4-56.7-56.7v-365C4.6,30,30,4.6,61.3,4.6h365c31.3,0,56.7,25.4,56.7,56.7v365 C483.1,457.7,457.7,483.1,426.4,483.1z" fill="none" stroke="#ffffff" stroke-miterlimit="10" stroke-width="9.277"/></g></svg>